<?xml version="1.0" encoding="UTF-8"?>
<svg width="28px" height="30px" viewBox="0 0 28 30" version="1.1" xmlns="http://www.w3.org/2000/svg" xmlns:xlink="http://www.w3.org/1999/xlink">
    <!-- Generator: Sketch 54.1 (76490) - https://sketchapp.com -->
    <title>logout</title>
    <desc>Created with Sketch.</desc>
    <g id="Page-1" stroke="none" stroke-width="1" fill="none" fill-rule="evenodd">
        <g id="Home" transform="translate(-803.000000, -723.000000)" fill="#FFFFFF" fill-rule="nonzero">
            <g id="logout" transform="translate(803.000000, 723.000000)">
                <path d="M13.3868008,28.2330508 L5.57536017,28.2330508 C3.45247881,28.2330508 1.73002119,26.5042373 1.73002119,24.3877119 L1.73002119,5.56144068 C1.73002119,3.43855932 3.45883475,1.71610169 5.57536017,1.71610169 L13.5139195,1.71610169 C13.9906144,1.71610169 14.3719703,1.33474576 14.3719703,0.858050847 C14.3719703,0.381355932 13.9906144,0 13.5139195,0 L5.57536017,0 C2.50544492,0 0.0139194915,2.49788136 0.0139194915,5.56144068 L0.0139194915,24.3877119 C0.0139194915,27.4576271 2.51180085,29.9491525 5.57536017,29.9491525 L13.3868008,29.9491525 C13.8634958,29.9491525 14.2448517,29.5677966 14.2448517,29.0911017 C14.2448517,28.6144068 13.8571398,28.2330508 13.3868008,28.2330508 Z" id="Path"></path>
                <path d="M27.5223941,14.3707627 L22.0690042,8.91737288 C21.7321398,8.58050847 21.1918856,8.58050847 20.8550212,8.91737288 C20.5181568,9.25423729 20.5181568,9.79449153 20.8550212,10.1313559 L24.8465466,14.1228814 L7.43764831,14.1228814 C6.96095339,14.1228814 6.57959746,14.5042373 6.57959746,14.9809322 C6.57959746,15.4576271 6.96095339,15.8389831 7.43764831,15.8389831 L24.8465466,15.8389831 L20.8550212,19.8305085 C20.5181568,20.1673729 20.5181568,20.7076271 20.8550212,21.0444915 C21.0202754,21.2097458 21.2427331,21.2987288 21.4588347,21.2987288 C21.6749364,21.2987288 21.8973941,21.2161017 22.0626483,21.0444915 L27.5160381,15.5911017 C27.8592585,15.2478814 27.8592585,14.7012712 27.5223941,14.3707627 Z" id="Path"></path>
            </g>
        </g>
    </g>
</svg>