<?xml version="1.0" encoding="UTF-8"?>
<svg width="35px" height="35px" viewBox="0 0 35 35" version="1.1" xmlns="http://www.w3.org/2000/svg" xmlns:xlink="http://www.w3.org/1999/xlink">
    <!-- Generator: Sketch 54.1 (76490) - https://sketchapp.com -->
    <title>settings</title>
    <desc>Created with Sketch.</desc>
    <g id="Page-1" stroke="none" stroke-width="1" fill="none" fill-rule="evenodd">
        <g id="Home" transform="translate(-718.000000, -721.000000)" fill="#FFFFFF" fill-rule="nonzero">
            <g id="settings" transform="translate(718.000000, 721.000000)">
                <path d="M33.1981481,13.6111111 L29.9237037,13.6111111 C29.3974074,13.6111111 28.9637963,13.3213889 28.7622222,12.8352778 C28.5606481,12.3491667 28.6630556,11.8371296 29.0344444,11.4650926 L31.3496296,9.15055556 C31.6899074,8.81027778 31.8772222,8.35722222 31.8772222,7.8762963 C31.8772222,7.39472222 31.6899074,6.94231481 31.3496296,6.60138889 L28.3986111,3.65037037 C27.7180556,2.96981481 26.5312963,2.96851852 25.8494444,3.65037037 L23.5349074,5.96490741 C23.1628704,6.3362963 22.649537,6.44 22.1647222,6.23777778 C21.6786111,6.0362037 21.3888889,5.60259259 21.3888889,5.0762963 L21.3888889,1.80185185 C21.3888889,0.808240741 20.5806481,0 19.587037,0 L15.412963,0 C14.4193519,0 13.6111111,0.808240741 13.6111111,1.80185185 L13.6111111,5.0762963 C13.6111111,5.60259259 13.3213889,6.0362037 12.8352778,6.23777778 C12.350463,6.44064815 11.8371296,6.3362963 11.4650926,5.96490741 L9.15055556,3.65037037 C8.4687037,2.96851852 7.28194444,2.96981481 6.60138889,3.65037037 L3.65037037,6.60138889 C3.31009259,6.94166667 3.12277778,7.39472222 3.12277778,7.8762963 C3.12277778,8.35722222 3.31009259,8.80962963 3.65037037,9.15055556 L5.96555556,11.4650926 C6.33694444,11.8371296 6.4387037,12.3491667 6.23777778,12.8352778 C6.03685185,13.3213889 5.60259259,13.6111111 5.0762963,13.6111111 L1.80185185,13.6111111 C0.808240741,13.6111111 0,14.4193519 0,15.412963 L0,19.5863889 C0,20.5806481 0.808240741,21.3888889 1.80185185,21.3888889 L5.0762963,21.3888889 C5.60259259,21.3888889 6.0362037,21.6786111 6.23777778,22.1647222 C6.43935185,22.6508333 6.33694444,23.1628704 5.96555556,23.5349074 L3.65037037,25.8494444 C3.31009259,26.1897222 3.12277778,26.6427778 3.12277778,27.1237037 C3.12277778,27.6052778 3.31009259,28.0576852 3.65037037,28.3986111 L6.60138889,31.3496296 C7.28259259,32.0308333 8.4687037,32.0321296 9.15055556,31.3496296 L11.4650926,29.0344444 C11.8371296,28.6630556 12.3485185,28.5606481 12.8352778,28.7622222 C13.3213889,28.9637963 13.6111111,29.3974074 13.6111111,29.9237037 L13.6111111,33.1981481 C13.6111111,34.1917593 14.4193519,35 15.412963,35 L19.5863889,35 C20.58,35 21.3882407,34.1917593 21.3882407,33.1981481 L21.3882407,29.9237037 C21.3882407,29.3974074 21.677963,28.9637963 22.1640741,28.7622222 C22.6508333,28.56 23.1622222,28.6630556 23.5342593,29.0344444 L25.8487963,31.3496296 C26.5306481,32.0314815 27.7174074,32.0301852 28.397963,31.3496296 L31.3489815,28.3986111 C31.6892593,28.0583333 31.8765741,27.6052778 31.8765741,27.1237037 C31.8765741,26.6427778 31.6892593,26.1903704 31.3489815,25.8494444 L29.0337963,23.5349074 C28.6624074,23.1628704 28.5606481,22.6508333 28.7615741,22.1647222 C28.9625,21.6786111 29.3974074,21.3888889 29.9237037,21.3888889 L33.1981481,21.3888889 C34.1917593,21.3888889 35,20.5806481 35,19.587037 L35,15.412963 C35,14.4193519 34.1917593,13.6111111 33.1981481,13.6111111 Z M33.7037037,19.587037 C33.7037037,19.8657407 33.4768519,20.0925926 33.1981481,20.0925926 L29.9237037,20.0925926 C28.8711111,20.0925926 27.9669444,20.6966667 27.5644444,21.6688889 C27.1612963,22.6411111 27.3732407,23.707963 28.117963,24.452037 L30.4331481,26.7665741 C30.6308333,26.9642593 30.6308333,27.2850926 30.4331481,27.4821296 L27.4821296,30.4331481 C27.2850926,30.6301852 26.9642593,30.6314815 26.7665741,30.4331481 L24.452037,28.117963 C23.7073148,27.3732407 22.6411111,27.1625926 21.6688889,27.5644444 C20.6966667,27.9669444 20.0925926,28.8711111 20.0925926,29.9237037 L20.0925926,33.1981481 C20.0925926,33.4768519 19.8657407,33.7037037 19.587037,33.7037037 L15.412963,33.7037037 C15.1342593,33.7037037 14.9074074,33.4768519 14.9074074,33.1981481 L14.9074074,29.9237037 C14.9074074,28.8711111 14.3033333,27.9669444 13.3311111,27.5644444 C13.0050926,27.4289815 12.6693519,27.3628704 12.3375,27.3628704 C11.6802778,27.3628704 11.0431481,27.6221296 10.547963,28.1173148 L8.23342593,30.4325 C8.03509259,30.6308333 7.71425926,30.629537 7.51787037,30.4325 L4.56685185,27.4814815 C4.36916667,27.2837963 4.36916667,26.962963 4.56685185,26.7659259 L6.88203704,24.4513889 C7.62611111,23.7073148 7.8387037,22.640463 7.43555556,21.6682407 C7.03305556,20.6966667 6.12888889,20.0925926 5.0762963,20.0925926 L1.80185185,20.0925926 C1.52314815,20.0925926 1.2962963,19.8657407 1.2962963,19.587037 L1.2962963,15.412963 C1.2962963,15.1342593 1.52314815,14.9074074 1.80185185,14.9074074 L5.0762963,14.9074074 C6.12888889,14.9074074 7.03305556,14.3033333 7.43555556,13.3311111 C7.8387037,12.3588889 7.62675926,11.292037 6.88203704,10.547963 L4.56685185,8.23342593 C4.36916667,8.03574074 4.36916667,7.71490741 4.56685185,7.51787037 L7.51787037,4.56685185 C7.71490741,4.36916667 8.03574074,4.36916667 8.23342593,4.56685185 L10.547963,6.88138889 C11.2913889,7.62481481 12.3575926,7.83805556 13.3311111,7.43490741 C14.3033333,7.03305556 14.9074074,6.12888889 14.9074074,5.0762963 L14.9074074,1.80185185 C14.9074074,1.52314815 15.1342593,1.2962963 15.412963,1.2962963 L19.5863889,1.2962963 C19.8657407,1.2962963 20.0925926,1.52314815 20.0925926,1.80185185 L20.0925926,5.0762963 C20.0925926,6.12888889 20.6966667,7.03305556 21.6688889,7.43555556 C22.6424074,7.8387037 23.707963,7.62611111 24.452037,6.88203704 L26.7665741,4.5675 C26.9649074,4.36981481 27.2857407,4.36981481 27.4821296,4.5675 L30.4331481,7.51851852 C30.6308333,7.7162037 30.6308333,8.03703704 30.4331481,8.23407407 L28.117963,10.5486111 C27.3738889,11.2926852 27.1612963,12.359537 27.5644444,13.3317593 C27.9669444,14.3039815 28.8711111,14.9080556 29.9237037,14.9080556 L33.1981481,14.9080556 C33.4768519,14.9074074 33.7037037,15.1342593 33.7037037,15.412963 L33.7037037,19.587037 Z" id="Shape"></path>
                <path d="M18.1481481,10.3703704 C14.5739712,10.3703704 11.6666667,13.2776749 11.6666667,16.8518519 C11.6666667,20.4260288 14.5739712,23.3333333 18.1481481,23.3333333 C21.7223251,23.3333333 24.6296296,20.4260288 24.6296296,16.8518519 C24.6296296,13.2776749 21.7223251,10.3703704 18.1481481,10.3703704 Z M18.1481481,22.037037 C15.2896296,22.037037 12.962963,19.7103704 12.962963,16.8518519 C12.962963,13.9933333 15.2896296,11.6666667 18.1481481,11.6666667 C21.0066667,11.6666667 23.3333333,13.9933333 23.3333333,16.8518519 C23.3333333,19.7103704 21.0066667,22.037037 18.1481481,22.037037 Z" id="Shape"></path>
            </g>
        </g>
    </g>
</svg>