<?xml version="1.0" encoding="UTF-8"?>
<svg width="40px" height="30px" viewBox="0 0 40 30" version="1.1" xmlns="http://www.w3.org/2000/svg" xmlns:xlink="http://www.w3.org/1999/xlink">
    <!-- Generator: Sketch 53.2 (72643) - https://sketchapp.com -->
    <title>left-arrow</title>
    <desc>Created with Sketch.</desc>
    <g id="Page-1" stroke="none" stroke-width="1" fill="none" fill-rule="evenodd">
        <g id="Project-page" transform="translate(-154.000000, -184.000000)" fill="#FFFFFF" fill-rule="nonzero">
            <g id="left-arrow" transform="translate(154.000000, 184.000000)">
                <path d="M37.5497792,13.0434783 L1.58065557,13.0434783 C0.707710598,13.0434783 0,13.7734766 0,14.673913 C0,15.5744283 0.707710598,16.3043478 1.58065557,16.3043478 L37.5497792,16.3043478 C38.4228006,16.3043478 39.1304348,15.5744283 39.1304348,14.673913 C39.1304348,13.7734766 38.4228006,13.0434783 37.5497792,13.0434783 Z" id="Path"></path>
                <path d="M3.8864136,15 L16.4849419,2.68595628 C17.1136113,2.07148653 17.1136113,1.075265 16.4849419,0.460795253 C15.8562725,-0.153598418 14.8370295,-0.153598418 14.2083601,0.460795253 L0.47150204,13.8873814 C-0.157167347,14.5018512 -0.157167347,15.4980727 0.47150204,16.1125425 L14.2083601,29.5391287 C14.5226559,29.8464016 14.9347118,30 15.3466899,30 C15.758668,30 16.1707239,29.8464016 16.4850197,29.5391287 C17.1136891,28.9246589 17.1136891,27.9284374 16.4850197,27.3139676 L3.8864136,15 Z" id="Path"></path>
            </g>
        </g>
    </g>
</svg>